<svg version="1.1" viewBox="0 0 362.8 411.4" xmlns="http://www.w3.org/2000/svg">
	<path d="m33 370.4-33-370.4h362.8l-33 370.2-148.7 41.2" fill="#e44d26" />
	<path d="m181.4 379.9v-349.5h148.3l-28.3 316" fill="#f16529" />
	<g transform="translate(-222.2 -18.586)">
		<path d="m403.6 252.07c-36.389 34.167-72.778 68.333-109.17 102.5v-90.417c17.083-17.083 34.167-34.167 51.25-51.25-17.083-17.083-34.167-34.167-51.25-51.25v-88.75c36.389 34.167 72.778 68.333 109.17 102.5v76.667z" fill="#e6e6e6" aria-label="ˇ " />
		<path d="m403.6 175.4c36.389-34.167 72.778-68.333 109.17-102.5v90.417c-17.083 17.083-34.167 34.167-51.25 51.25 17.083 17.083 34.167 34.167 51.25 51.25v88.75c-36.389-34.167-72.778-68.333-109.17-102.5v-76.667z" fill="#fff" aria-label="ˇ " />
	</g>
</svg>